<?xml version="1.0" encoding="UTF-8" standalone="no"?>
<svg
   width="16"
   height="16"
   version="1.1"
   id="svg1"
   sodipodi:docname="DirectionalLight3D.svg"
   inkscape:version="1.4.3 (0d15f75042, 2025-12-25)"
   inkscape:export-filename="DirectionalLight3D.png"
   inkscape:export-xdpi="288"
   inkscape:export-ydpi="288"
   xmlns:inkscape="http://www.inkscape.org/namespaces/inkscape"
   xmlns:sodipodi="http://sodipodi.sourceforge.net/DTD/sodipodi-0.dtd"
   xmlns="http://www.w3.org/2000/svg"
   xmlns:svg="http://www.w3.org/2000/svg">
  <defs
     id="defs1" />
  <sodipodi:namedview
     id="namedview1"
     pagecolor="#ffffff"
     bordercolor="#000000"
     borderopacity="0.25"
     inkscape:showpageshadow="2"
     inkscape:pageopacity="0.0"
     inkscape:pagecheckerboard="0"
     inkscape:deskcolor="#d1d1d1"
     inkscape:zoom="51.5"
     inkscape:cx="8"
     inkscape:cy="8"
     inkscape:window-width="1920"
     inkscape:window-height="1052"
     inkscape:window-x="0"
     inkscape:window-y="0"
     inkscape:window-maximized="1"
     inkscape:current-layer="svg1" />
  <path
     fill="#fc7f7f"
     d="M7 1v3h2V1zM4.465 3.05 3.05 4.466 4.464 5.88l1.414-1.414zm7.07 0-1.414 1.415 1.414 1.414 1.414-1.414zM8 5a2 2 0 0 0 0 6 2 2 0 0 0 0-6zM1 7v2h3V7zm11 0v2h3V7zm-7.535 3.121L3.05 11.535l1.414 1.414 1.414-1.414zm7.07 0-1.414 1.414 1.414 1.414 1.414-1.414zM7 12v3h2v-3z"
     id="path1"
     style="fill:#ffffff;fill-opacity:1" />
</svg>
